<svg width="90" height="30" viewBox="0 0 90 30" fill="none" xmlns="http://www.w3.org/2000/svg">
<path d="M21.7212 0.87207V2.67383H11.9116V29.5H9.80957V2.67383H0.200195V0.87207H21.7212ZM26.4434 23.5542C26.4434 19.3768 29.2194 17.2881 34.7715 17.2881C36.7334 17.2881 38.8288 17.4215 41.0576 17.6885V15.106C41.0576 11.8895 39.0356 10.2812 34.9917 10.2812C32.8296 10.2812 30.6141 10.6149 28.3452 11.2822V9.48047C30.6141 8.81315 32.8296 8.47949 34.9917 8.47949C40.437 8.47949 43.1597 10.6549 43.1597 15.0059V29.5H41.8784L41.3979 27.418C38.7687 28.806 36.2196 29.5 33.7505 29.5C28.8791 29.5 26.4434 27.5181 26.4434 23.5542ZM34.7715 19.0898C30.6208 19.0898 28.5454 20.5579 28.5454 23.4941C28.5454 26.2969 30.2804 27.6982 33.7505 27.6982C36.313 27.6982 38.7487 27.0176 41.0576 25.6562V19.4902C38.8288 19.2233 36.7334 19.0898 34.7715 19.0898ZM55.3892 0.87207L52.3862 9.58057H50.084L53.0869 0.87207H55.3892ZM60.9121 23.5542C60.9121 19.3768 63.6882 17.2881 69.2402 17.2881C71.2021 17.2881 73.2975 17.4215 75.5264 17.6885V15.106C75.5264 11.8895 73.5044 10.2812 69.4604 10.2812C67.2983 10.2812 65.0828 10.6149 62.814 11.2822V9.48047C65.0828 8.81315 67.2983 8.47949 69.4604 8.47949C74.9058 8.47949 77.6284 10.6549 77.6284 15.0059V29.5H76.3472L75.8667 27.418C73.2375 28.806 70.6883 29.5 68.2192 29.5C63.3478 29.5 60.9121 27.5181 60.9121 23.5542ZM69.2402 19.0898C65.0895 19.0898 63.0142 20.5579 63.0142 23.4941C63.0142 26.2969 64.7492 27.6982 68.2192 27.6982C70.7817 27.6982 73.2174 27.0176 75.5264 25.6562V19.4902C73.2975 19.2233 71.2021 19.0898 69.2402 19.0898ZM89.0571 0.87207V29.5H86.9551V0.87207H89.0571Z" fill="#54BD95"/>
</svg>
