<svg xmlns="http://www.w3.org/2000/svg" xmlns:xlink="http://www.w3.org/1999/xlink" fill="none" version="1.1" viewBox="0 0 20.563940048217773 20"><defs><clipPath id="master_svg0_0_5179"><rect x="0" y="0" width="20.563940048217773" height="20" rx="0"/></clipPath></defs><g clip-path="url(#master_svg0_0_5179)"><g><path d="M16.256288513000488,8.386064915441894Q16.25795551300049,8.359725315441894,16.25795551300049,8.333333015441895Q16.25795551300049,8.251092715441894,16.24191151300049,8.170433015441894Q16.22586651300049,8.089773015441894,16.19439451300049,8.013792015441895Q16.16292251300049,7.937812015441894,16.117232513000488,7.869432015441895Q16.071542513000487,7.801052015441894,16.013389513000487,7.742899015441894Q15.955236513000488,7.6847460154418945,15.886856513000488,7.639056015441895Q15.818476513000489,7.5933660154418945,15.742496513000487,7.5618940154418945Q15.666515513000489,7.530422015441895,15.585855513000489,7.5143770154418945Q15.505195813000489,7.498333015441895,15.422955513000488,7.498333015441895Q15.340715213000488,7.498333015441895,15.260055513000488,7.5143770154418945Q15.179395513000488,7.530422015441895,15.103414513000489,7.5618940154418945Q15.027434513000488,7.5933660154418945,14.959054513000488,7.639056015441895Q14.890674513000489,7.6847460154418945,14.832521513000488,7.742899015441894Q14.77436851300049,7.801052015441894,14.728678513000489,7.869432015441895Q14.682988513000488,7.937812015441894,14.651516513000487,8.013792015441895Q14.620044513000488,8.089773015441894,14.603999513000488,8.170433015441894Q14.587955513000487,8.251092715441894,14.587955513000487,8.333333015441895Q14.587955513000487,8.359725315441894,14.589622513000489,8.386064915441894L14.589622513000489,16.613933015441894Q14.587955513000487,16.640273015441895,14.587955513000487,16.666663015441895Q14.587955513000487,16.748903015441897,14.603999513000488,16.829563015441895Q14.620044513000488,16.910223015441893,14.651516513000487,16.986203015441895Q14.682988513000488,17.062183015441896,14.728678513000489,17.130563015441894Q14.77436851300049,17.198943015441895,14.832521513000488,17.257103015441892Q14.890674513000489,17.315253015441897,14.959054513000488,17.360943015441894Q15.027434513000488,17.406633015441894,15.103414513000489,17.438103015441897Q15.179395513000488,17.469573015441895,15.260055513000488,17.485623015441895Q15.340715213000488,17.501663015441892,15.422955513000488,17.501663015441892Q15.505195813000489,17.501663015441892,15.585855513000489,17.485623015441895Q15.666515513000489,17.469573015441895,15.742496513000487,17.438103015441897Q15.818476513000489,17.406633015441894,15.886856513000488,17.360943015441894Q15.955236513000488,17.315253015441897,16.013389513000487,17.257103015441892Q16.071542513000487,17.198943015441895,16.117232513000488,17.130563015441894Q16.16292251300049,17.062183015441896,16.19439451300049,16.986203015441895Q16.22586651300049,16.910223015441893,16.24191151300049,16.829563015441895Q16.25795551300049,16.748903015441897,16.25795551300049,16.666663015441895Q16.25795551300049,16.640273015441895,16.256288513000488,16.613933015441894L16.256288513000488,8.386064915441894Z" fill-rule="evenodd" fill="#52BD94" fill-opacity="1"/></g><g><path d="M11.115303024108886,3.3860653922790527Q11.116970024108888,3.3597257922790527,11.116970024108888,3.3333334922790527Q11.116970024108888,3.2510931922790527,11.100926024108887,3.1704334922790527Q11.084881024108887,3.0897734922790527,11.053409024108888,3.0137924922790527Q11.021937024108887,2.9378124922790527,10.976247024108886,2.869432492279053Q10.930557024108886,2.8010524922790525,10.872404024108887,2.7428994922790526Q10.814251024108886,2.6847464922790527,10.745871024108887,2.6390564922790527Q10.677491024108887,2.5933664922790527,10.601511024108886,2.5618944922790527Q10.525530024108887,2.530422492279053,10.444870024108887,2.5143774922790527Q10.364210324108887,2.4983334922790528,10.281970024108887,2.4983334922790528Q10.199729724108886,2.4983334922790528,10.119070024108886,2.5143774922790527Q10.038410024108886,2.530422492279053,9.962429024108888,2.5618944922790527Q9.886449024108886,2.5933664922790527,9.818069024108887,2.6390564922790527Q9.749689024108887,2.6847464922790527,9.691536024108887,2.7428994922790526Q9.633383024108888,2.8010524922790525,9.587693024108887,2.869432492279053Q9.542003024108887,2.9378124922790527,9.510531024108886,3.0137924922790527Q9.479059024108887,3.0897734922790527,9.463014024108887,3.1704334922790527Q9.446970024108886,3.2510931922790527,9.446970024108886,3.3333334922790527Q9.446970024108886,3.3597257922790527,9.448637024108887,3.3860653922790527L9.448637024108887,16.613933492279052Q9.446970024108886,16.64023349227905,9.446970024108886,16.666633492279054Q9.446970024108886,16.74893349227905,9.463014024108887,16.829533492279054Q9.479059024108887,16.910233492279055,9.510531024108886,16.986233492279055Q9.542003024108887,17.062233492279052,9.587693024108887,17.130533492279053Q9.633383024108888,17.198933492279053,9.691536024108887,17.257133492279053Q9.749689024108887,17.315233492279052,9.818069024108887,17.360933492279052Q9.886449024108886,17.406633492279052,9.962429024108888,17.43813349227905Q10.038410024108886,17.469533492279055,10.119070024108886,17.485633492279053Q10.199729724108886,17.501633492279055,10.281970024108887,17.501633492279055Q10.364210324108887,17.501633492279055,10.444870024108887,17.485633492279053Q10.525530024108887,17.469533492279055,10.601511024108886,17.43813349227905Q10.677491024108887,17.406633492279052,10.745871024108887,17.360933492279052Q10.814251024108886,17.315233492279052,10.872404024108887,17.257133492279053Q10.930557024108886,17.198933492279053,10.976247024108886,17.130533492279053Q11.021937024108887,17.062233492279052,11.053409024108888,16.986233492279055Q11.084881024108887,16.910233492279055,11.100926024108887,16.829533492279054Q11.116970024108888,16.74893349227905,11.116970024108888,16.666633492279054Q11.116970024108888,16.64023349227905,11.115303024108886,16.613933492279052L11.115303024108886,3.3860653922790527Z" fill-rule="evenodd" fill="#52BD94" fill-opacity="1"/></g><g><path d="M5.974318012054443,11.719398884558105Q5.975985012054443,11.693059284558105,5.975985012054443,11.666666984558105Q5.975985012054443,11.584426684558105,5.959941012054443,11.503766984558105Q5.943896012054443,11.423106984558105,5.912424012054443,11.347125984558106Q5.880952012054443,11.271145984558105,5.835262012054443,11.202765984558106Q5.789572012054443,11.134385984558106,5.7314190120544435,11.076232984558105Q5.673266012054444,11.018079984558106,5.604886012054443,10.972389984558106Q5.536506012054444,10.926699984558105,5.460526012054443,10.895227984558105Q5.384545012054444,10.863755984558106,5.303885012054443,10.847710984558105Q5.223225312054443,10.831666984558105,5.140985012054443,10.831666984558105Q5.058744712054444,10.831666984558105,4.978085012054444,10.847710984558105Q4.897425012054443,10.863755984558106,4.821444012054443,10.895227984558105Q4.745464012054443,10.926699984558105,4.6770840120544435,10.972389984558106Q4.608704012054443,11.018079984558106,4.550551012054443,11.076232984558105Q4.492398012054443,11.134385984558106,4.446708012054444,11.202765984558106Q4.401018012054443,11.271145984558105,4.369546012054443,11.347125984558106Q4.338074012054443,11.423106984558105,4.322029012054443,11.503766984558105Q4.305985012054443,11.584426684558105,4.305985012054443,11.666666984558105Q4.305985012054443,11.693059284558105,4.307652012054444,11.719398884558105L4.307652012054444,16.613936984558105Q4.305985012054443,16.640276984558106,4.305985012054443,16.666666984558105Q4.305985012054443,16.748906984558104,4.322029012054443,16.829566984558106Q4.338074012054443,16.910226984558108,4.369546012054443,16.986206984558105Q4.401018012054443,17.062186984558107,4.446708012054444,17.130566984558104Q4.492398012054443,17.198946984558106,4.550551012054443,17.257096984558103Q4.608704012054443,17.315256984558104,4.6770840120544435,17.360946984558105Q4.745464012054443,17.406636984558105,4.821444012054443,17.438106984558104Q4.897425012054443,17.469576984558106,4.978085012054444,17.485616984558106Q5.058744712054444,17.501666984558106,5.140985012054443,17.501666984558106Q5.223225312054443,17.501666984558106,5.303885012054443,17.485626984558106Q5.384545012054444,17.469576984558106,5.460526012054443,17.438106984558104Q5.536506012054444,17.406636984558105,5.604886012054443,17.360946984558105Q5.673266012054444,17.315256984558104,5.7314190120544435,17.257096984558103Q5.789572012054443,17.198946984558106,5.835262012054443,17.130566984558104Q5.880952012054443,17.062186984558107,5.912424012054443,16.986206984558105Q5.943896012054443,16.910226984558108,5.959941012054443,16.829566984558106Q5.975985012054443,16.748906984558104,5.975985012054443,16.666666984558105Q5.975985012054443,16.640276984558106,5.974318012054443,16.613936984558105L5.974318012054443,11.719398884558105Z" fill-rule="evenodd" fill="#52BD94" fill-opacity="1"/></g></g></svg>