<svg xmlns="http://www.w3.org/2000/svg" xmlns:xlink="http://www.w3.org/1999/xlink" fill="none" version="1.1" viewBox="0 0 30 30"><g><path d="M15,30Q15.3682,30,15.736,29.9819Q16.1038,29.9639,16.4703,29.9278Q16.8367,29.8917,17.201,29.8376Q17.5652,29.7836,17.9264,29.7118Q18.2875,29.6399,18.6447,29.5505Q19.0019,29.461,19.3543,29.3541Q19.7066,29.2472,20.0533,29.1232Q20.4,28.9991,20.7402,28.8582Q21.0804,28.7173,21.4133,28.5598Q21.7462,28.4024,22.0709,28.2288Q22.3957,28.0552,22.7115,27.8659Q23.0274,27.6766,23.3335,27.472Q23.6397,27.2675,23.9355,27.0481Q24.2313,26.8288,24.5159,26.5952Q24.8005,26.3616,25.0734,26.1143Q25.3462,25.867,25.6066,25.6066Q25.867,25.3462,26.1143,25.0734Q26.3616,24.8005,26.5952,24.5159Q26.8288,24.2313,27.0481,23.9355Q27.2675,23.6397,27.472,23.3335Q27.6766,23.0274,27.8659,22.7115Q28.0552,22.3957,28.2288,22.0709Q28.4024,21.7462,28.5598,21.4133Q28.7173,21.0804,28.8582,20.7402Q28.9991,20.4,29.1232,20.0533Q29.2472,19.7066,29.3541,19.3543Q29.461,19.0019,29.5505,18.6447Q29.6399,18.2875,29.7118,17.9264Q29.7836,17.5652,29.8376,17.201Q29.8917,16.8367,29.9278,16.4703Q29.9639,16.1038,29.9819,15.736Q30,15.3682,30,15Q30,14.6318,29.9819,14.264Q29.9639,13.8962,29.9278,13.5297Q29.8917,13.1633,29.8376,12.799Q29.7836,12.4348,29.7118,12.0736Q29.6399,11.7125,29.5505,11.3553Q29.461,10.9981,29.3541,10.6457Q29.2472,10.2934,29.1232,9.94665Q28.9991,9.59995,28.8582,9.25975Q28.7173,8.91955,28.5598,8.58667Q28.4024,8.2538,28.2288,7.92905Q28.0552,7.6043,27.8659,7.28846Q27.6766,6.97262,27.472,6.66645Q27.2675,6.36027,27.0481,6.06451Q26.8288,5.76875,26.5952,5.4841Q26.3616,5.19945,26.1143,4.92661Q25.867,4.65378,25.6066,4.3934Q25.3462,4.13302,25.0734,3.88573Q24.8005,3.63845,24.5159,3.40484Q24.2313,3.17124,23.9355,2.95189Q23.6397,2.73253,23.3335,2.52796Q23.0274,2.32338,22.7115,2.13407Q22.3957,1.94476,22.0709,1.77118Q21.7462,1.5976,21.4133,1.44016Q21.0804,1.28272,20.7402,1.14181Q20.4,1.00089,20.0533,0.876839Q19.7066,0.752786,19.3543,0.645895Q19.0019,0.539004,18.6447,0.449531Q18.2875,0.360059,17.9264,0.288221Q17.5652,0.216383,17.201,0.162352Q16.8367,0.108322,16.4703,0.0722291Q16.1038,0.0361363,15.736,0.0180682Q15.3682,0,15,0Q14.6318,0,14.264,0.0180682Q13.8962,0.0361363,13.5297,0.0722291Q13.1633,0.108322,12.799,0.162352Q12.4348,0.216383,12.0736,0.288221Q11.7125,0.360059,11.3553,0.449531Q10.9981,0.539004,10.6457,0.645895Q10.2934,0.752786,9.94665,0.876839Q9.59995,1.00089,9.25975,1.14181Q8.91955,1.28272,8.58667,1.44016Q8.2538,1.5976,7.92905,1.77118Q7.6043,1.94476,7.28846,2.13407Q6.97262,2.32338,6.66645,2.52796Q6.36027,2.73253,6.06451,2.95189Q5.76875,3.17124,5.4841,3.40484Q5.19945,3.63845,4.92661,3.88573Q4.65378,4.13302,4.3934,4.3934Q4.13302,4.65378,3.88573,4.92661Q3.63845,5.19945,3.40484,5.4841Q3.17124,5.76874,2.95189,6.06451Q2.73253,6.36027,2.52796,6.66645Q2.32338,6.97262,2.13407,7.28846Q1.94476,7.6043,1.77118,7.92905Q1.5976,8.2538,1.44016,8.58667Q1.28272,8.91955,1.14181,9.25975Q1.00089,9.59995,0.876839,9.94665Q0.752786,10.2934,0.645895,10.6457Q0.539004,10.9981,0.449531,11.3553Q0.360059,11.7125,0.288221,12.0736Q0.216383,12.4348,0.162352,12.799Q0.108322,13.1633,0.0722291,13.5297Q0.0361363,13.8962,0.0180682,14.264Q0,14.6318,0,15Q0,15.3682,0.0180682,15.736Q0.0361363,16.1038,0.0722291,16.4703Q0.108322,16.8367,0.162352,17.201Q0.216383,17.5652,0.288221,17.9264Q0.360059,18.2875,0.449531,18.6447Q0.539004,19.0019,0.645895,19.3543Q0.752786,19.7066,0.876839,20.0533Q1.00089,20.4,1.14181,20.7402Q1.28272,21.0804,1.44016,21.4133Q1.5976,21.7462,1.77118,22.0709Q1.94476,22.3957,2.13407,22.7115Q2.32338,23.0274,2.52796,23.3335Q2.73253,23.6397,2.95189,23.9355Q3.17124,24.2313,3.40484,24.5159Q3.63845,24.8005,3.88573,25.0734Q4.13302,25.3462,4.3934,25.6066Q4.65378,25.867,4.92661,26.1143Q5.19945,26.3616,5.4841,26.5952Q5.76874,26.8288,6.06451,27.0481Q6.36027,27.2675,6.66645,27.472Q6.97262,27.6766,7.28846,27.8659Q7.6043,28.0552,7.92905,28.2288Q8.2538,28.4024,8.58667,28.5598Q8.91955,28.7173,9.25975,28.8582Q9.59995,28.9991,9.94665,29.1232Q10.2934,29.2472,10.6457,29.3541Q10.9981,29.461,11.3553,29.5505Q11.7125,29.6399,12.0736,29.7118Q12.4348,29.7836,12.799,29.8376Q13.1633,29.8917,13.5297,29.9278Q13.8962,29.9639,14.264,29.9819Q14.6318,30,15,30ZM20.5179,12.6961L14.0099,19.4074L9.51047,15.1243L10.8894,13.6757L13.9536,16.5926L19.0821,11.3039L20.5179,12.6961Z" fill-rule="evenodd" fill="#54BD95" fill-opacity="1"/></g></svg>